<?xml version="1.0" encoding="iso-8859-1"?>
<!-- Generator: Adobe Illustrator 18.0.0, SVG Export Plug-In . SVG Version: 6.00 Build 0)  -->
<!DOCTYPE svg PUBLIC "-//W3C//DTD SVG 1.1//EN" "http://www.w3.org/Graphics/SVG/1.1/DTD/svg11.dtd">
<svg version="1.1" id="Capa_1" xmlns="http://www.w3.org/2000/svg" xmlns:xlink="http://www.w3.org/1999/xlink" x="0px" y="0px"
	 viewBox="0 0 256.795 256.795" style="enable-background:new 0 0 256.795 256.795;" xml:space="preserve">
<g>
	<path d="M252.11,177.482c-3.792-4.502-9.344-7.084-15.231-7.084h-2.481v-107c0-9.925-8.075-18-18-18h-176c-9.925,0-18,8.075-18,18
		v107h-2.481c-5.887,0-11.438,2.582-15.231,7.084s-5.394,10.412-4.394,16.213l2.193,12.722c0.496,2.878,2.992,4.98,5.913,4.98h240
		c2.92,0,5.417-2.103,5.913-4.98l2.193-12.722C257.504,187.894,255.902,181.984,252.11,177.482z M34.397,63.397c0-3.309,2.691-6,6-6
		h176c3.309,0,6,2.691,6,6v107h-188V63.397z M244.678,191.656l-1.335,7.741H13.452l-1.335-7.741
		c-0.397-2.306,0.239-4.654,1.746-6.443c1.507-1.789,3.713-2.815,6.053-2.815h2.481h212h2.481c2.34,0,4.546,1.026,6.053,2.815
		C244.439,187.002,245.076,189.351,244.678,191.656z"/>
	<path d="M206.731,65.397H50.064c-3.313,0-6,2.687-6,6v85c0,3.313,2.687,6,6,6h156.667c3.313,0,6-2.687,6-6v-85
		C212.731,68.084,210.044,65.397,206.731,65.397z M200.731,150.397H56.064v-73h144.667V150.397z"/>
	<path d="M116.966,132.518c1.171,1.171,2.707,1.757,4.243,1.757s3.071-0.586,4.243-1.757l28.756-28.756
		c2.343-2.343,2.343-6.142,0-8.485c-2.343-2.343-6.143-2.343-8.485,0l-24.513,24.513l-10.135-10.135
		c-2.343-2.343-6.143-2.343-8.485,0c-2.343,2.343-2.343,6.142,0,8.485L116.966,132.518z"/>
	<rect x="22.897" y="186.897" width="11.5" height="8"/>
	<rect x="38.564" y="186.897" width="19.833" height="8"/>
	<rect x="222.647" y="186.897" width="11.5" height="8"/>
</g>
<g>
</g>
<g>
</g>
<g>
</g>
<g>
</g>
<g>
</g>
<g>
</g>
<g>
</g>
<g>
</g>
<g>
</g>
<g>
</g>
<g>
</g>
<g>
</g>
<g>
</g>
<g>
</g>
<g>
</g>
</svg>
