<?xml version="1.0" encoding="iso-8859-1"?>
<!-- Generator: Adobe Illustrator 18.0.0, SVG Export Plug-In . SVG Version: 6.00 Build 0)  -->
<!DOCTYPE svg PUBLIC "-//W3C//DTD SVG 1.1//EN" "http://www.w3.org/Graphics/SVG/1.1/DTD/svg11.dtd">
<svg version="1.1" id="Capa_1" xmlns="http://www.w3.org/2000/svg" xmlns:xlink="http://www.w3.org/1999/xlink" x="0px" y="0px"
	 viewBox="0 0 225 225" style="enable-background:new 0 0 225 225;" xml:space="preserve">
<g>
	<circle style="fill:#1D1D1B;" cx="112.5" cy="196.649" r="7.651"/>
	<path style="fill:#1D1D1B;" d="M179.135,0H45.865C33.042,0,22.611,10.432,22.611,23.254v178.492
		c0,12.822,10.432,23.254,23.254,23.254h133.271c12.822,0,23.254-10.432,23.254-23.254V23.254C202.389,10.432,191.958,0,179.135,0z
		 M187.389,201.746c0,4.551-3.703,8.254-8.254,8.254H45.865c-4.551,0-8.254-3.703-8.254-8.254V23.254
		c0-4.551,3.703-8.254,8.254-8.254h133.271c4.551,0,8.254,3.703,8.254,8.254V201.746z"/>
	<path style="fill:#1D1D1B;" d="M163.367,29.636H61.633c-4.142,0-7.5,3.357-7.5,7.5V175.22c0,4.143,3.358,7.5,7.5,7.5h101.734
		c4.142,0,7.5-3.357,7.5-7.5V37.136C170.867,32.993,167.509,29.636,163.367,29.636z M155.867,167.72H69.133V44.636h86.734V167.72z"
		/>
</g>
<g>
</g>
<g>
</g>
<g>
</g>
<g>
</g>
<g>
</g>
<g>
</g>
<g>
</g>
<g>
</g>
<g>
</g>
<g>
</g>
<g>
</g>
<g>
</g>
<g>
</g>
<g>
</g>
<g>
</g>
</svg>
